# xmcd
#
# Track frame offsets:
# 183
# 14150
# 30520
# 40605
# 54043
# 68045
# 80543
# 94890
# 105388
# 120268
#
# Disc length: 1752 seconds
#
#
# Revision: 2
# Processed by: cddbd v1.5.2PL0 Copyright (c) Steve Scherf et al.
# Submitted via: FreeRIP 2.951 
#
DISCID=6d06d60a
DTITLE=Alan Jackson - Here In The Real World
DYEAR=1989
DGENRE=Country
TTITLE0=Ace of Hearts - Alan Jackson
TTITLE1=Here In The Real World - Alan Jackson
TTITLE2=Blue Blooded Woman - Alan Jackson
TTITLE3=Wanted - Alan Jackson
TTITLE4=Chasin' That Neon Rainbow - Alan Jackson
TTITLE5=She Don't Get The Blues - Alan Jackson
TTITLE6=I'd Love You All Over Again - Alan Jackson
TTITLE7=Dog River Blues - Alan Jackson
TTITLE8=Home - Alan Jackson
TTITLE9=Sweet Short Ride - Alan Jackson
EXTD=
EXTT0=
EXTT1=
EXTT2=
EXTT3=
EXTT4=
EXTT5=
EXTT6=
EXTT7=
EXTT8=
EXTT9=
PLAYORDER=
